HIERARCHY
ROOT joint1
{
  OFFSET -2.73861 24.2124 -2.50801
  CHANNELS 6 Xposition Yposition Zposition Zrotation Xrotation Yrotation
  JOINT joint2
  {
    OFFSET 16 0 0
    CHANNELS 6 Xposition Yposition Zposition Zrotation Xrotation Yrotation
    End Site
    {
      OFFSET 0 0 0
    }
  }
}
MOTION
Frames:	81
Frame Time:	0.0166667
-2.73861 24.2124 -2.50801 -66.2293 0 -0 16 -3.55271e-015 -8.88178e-016 90 0 -0 
-2.73833 24.186 -2.51952 -66.2293 0 -0 16 -3.55271e-015 -8.88178e-016 90 0 -0 
-2.73786 24.1443 -2.53772 -66.2293 0 -0 16 -3.55271e-015 -8.88178e-016 90 0 -0 
-2.73749 24.1154 -2.55031 -66.2293 0 -0 16 -4.44089e-015 -8.88178e-016 90 0 -0 
-2.73711 24.0897 -2.56151 -66.2293 0 -0 16 -3.55271e-015 -8.88178e-016 90 0 -0 
-2.73671 24.067 -2.57138 -66.2293 0 -0 16 -5.32907e-015 -8.88178e-016 90 0 -0 
-2.73631 24.0472 -2.58002 -66.2293 0 -0 16 -3.55271e-015 -8.88178e-016 90 0 -0 
-2.7359 24.03 -2.58751 -66.2293 0 -0 16 -3.55271e-015 -8.88178e-016 90 0 -0 
-2.73548 24.0153 -2.59394 -66.2293 0 -0 16 -4.44089e-015 -8.88178e-016 90 0 -0 
-2.73505 24.0028 -2.59937 -66.2293 0 -0 16 -5.32907e-015 -8.88178e-016 90 0 -0 
-2.73459 23.9924 -2.6039 -66.2293 0 -0 16 -3.55271e-015 -8.88178e-016 90 0 -0 
-2.73412 23.9839 -2.6076 -66.2293 0 -0 16 -3.55271e-015 -8.88178e-016 90 0 -0 
-2.73363 23.9771 -2.61057 -66.2293 0 -0 16 -5.32907e-015 -8.88178e-016 90 0 -0 
-2.73312 23.9718 -2.61288 -66.2293 0 -0 16 -4.44089e-015 -8.88178e-016 90 0 -0 
-2.73258 23.9679 -2.61461 -66.2293 0 -0 16 -4.44089e-015 -8.88178e-016 90 0 -0 
-2.73202 23.965 -2.61584 -66.2293 0 -0 16 -3.55271e-015 -8.88178e-016 90 0 -0 
-2.73143 23.9631 -2.61667 -66.2293 0 -0 16 -3.55271e-015 -8.88178e-016 90 0 -0 
-2.73081 23.9619 -2.61718 -66.2293 0 -0 16 -3.55271e-015 -8.88178e-016 90 0 -0 
-2.73016 23.9614 -2.61742 -66.2293 0 -0 16 -4.44089e-015 -8.88178e-016 90 0 -0 
-2.72966 23.9612 -2.61749 -66.2293 0 -0 16 -4.44089e-015 -8.88178e-016 90 0 -0 
-2.72877 23.9612 -2.6175 -66.2293 0 -0 16 -3.55271e-015 -8.88178e-016 90 0 -0 
-2.72677 23.9619 -2.61715 -66.2293 0 -0 16 -4.44089e-015 -8.88178e-016 90 0 -0 
-2.7243 23.9637 -2.61621 -66.2293 0 -0 16 -3.55271e-015 -8.88178e-016 90 0 -0 
-2.72178 23.9665 -2.61476 -66.2293 0 -0 16 -3.55271e-015 -8.88178e-016 90 0 -0 
-2.71908 23.9701 -2.61287 -66.2293 0 -0 16 -2.66454e-015 -8.88178e-016 90 0 -0 
-2.71626 23.9745 -2.61059 -66.2293 0 -0 16 -5.32907e-015 -8.88178e-016 90 0 -0 
-2.71332 23.9795 -2.60799 -66.2293 0 -0 16 -4.44089e-015 -8.88178e-016 90 0 -0 
-2.7103 23.9849 -2.60513 -66.2293 0 -0 16 -4.44089e-015 -8.88178e-016 90 0 -0 
-2.70721 23.9907 -2.60208 -66.2293 0 -0 16 -2.66454e-015 -8.88178e-016 90 0 -0 
-2.7041 23.9968 -2.59891 -66.2293 0 -0 16 -5.32907e-015 -8.88178e-016 90 0 -0 
-2.70097 24.003 -2.59567 -66.2293 0 -0 16 -4.44089e-015 -8.88178e-016 90 0 -0 
-2.69786 24.0092 -2.59243 -66.2293 0 -0 16 -5.32907e-015 -8.88178e-016 90 0 -0 
-2.6948 24.0153 -2.58926 -66.2293 0 -0 16 -3.55271e-015 -8.88178e-016 90 0 -0 
-2.69181 24.0211 -2.58621 -66.2293 0 -0 16 -2.66454e-015 -8.88178e-016 90 0 -0 
-2.68891 24.0266 -2.58336 -66.2293 0 -0 16 -4.44089e-015 -8.88178e-016 90 0 -0 
-2.68613 24.0316 -2.58076 -66.2293 0 -0 16 -3.55271e-015 -8.88178e-016 90 0 -0 
-2.68351 24.0359 -2.57849 -66.2293 0 -0 16 -4.44089e-015 -8.88178e-016 90 0 -0 
-2.68105 24.0396 -2.5766 -66.2293 0 -0 16 -4.44089e-015 -8.88178e-016 90 0 -0 
-2.67879 24.0423 -2.57516 -66.2293 0 -0 16 -5.32907e-015 -8.88178e-016 90 0 -0 
-2.67635 24.0441 -2.57424 -66.2293 0 -0 16 -3.55271e-015 -8.88178e-016 90 0 -0 
-2.67498 24.0448 -2.57389 -66.2293 0 -0 16 -3.55271e-015 -8.88178e-016 90 0 -0 
-2.67569 24.0416 -2.57543 -66.2293 0 -0 16 -4.44089e-015 -8.88178e-016 90 0 -0 
-2.67693 24.033 -2.57963 -66.2293 0 -0 16 -2.66454e-015 -8.88178e-016 90 0 -0 
-2.67801 24.0194 -2.58631 -66.2293 0 -0 16 -4.44089e-015 -8.88178e-016 90 0 -0 
-2.67915 24.0014 -2.59512 -66.2293 0 -0 16 -5.32907e-015 -8.88178e-016 90 0 -0 
-2.68035 23.9796 -2.60577 -66.2293 0 -0 16 -3.55271e-015 -8.88178e-016 90 0 -0 
-2.68161 23.9547 -2.61794 -66.2293 0 -0 16 -3.55271e-015 -8.88178e-016 90 0 -0 
-2.68291 23.9273 -2.63133 -66.2293 0 -0 16 -3.55271e-015 -8.88178e-016 90 0 -0 
-2.68425 23.8981 -2.64564 -66.2293 0 -0 16 -3.55271e-015 -8.88178e-016 90 0 -0 
-2.68563 23.8676 -2.66055 -66.2293 0 -0 16 -5.32907e-015 -8.88178e-016 90 0 -0 
-2.68705 23.8365 -2.67577 -66.2293 0 -0 16 -5.32907e-015 -8.88178e-016 90 0 -0 
-2.68849 23.8054 -2.691 -66.2293 0 -0 16 -4.44089e-015 -8.88178e-016 90 0 -0 
-2.68996 23.7749 -2.70591 -66.2293 0 -0 16 -3.55271e-015 -8.88178e-016 90 0 -0 
-2.69145 23.7456 -2.72022 -66.2293 0 -0 16 -4.44089e-015 -8.88178e-016 90 0 -0 
-2.69295 23.7183 -2.73361 -66.2293 0 -0 16 -3.55271e-015 -8.88178e-016 90 0 -0 
-2.69447 23.6934 -2.74579 -66.2293 0 -0 16 -3.55271e-015 -8.88178e-016 90 0 -0 
-2.69599 23.6716 -2.75643 -66.2293 0 -0 16 -3.55271e-015 -8.88178e-016 90 0 -0 
-2.69751 23.6536 -2.76525 -66.2293 0 -0 16 -4.44089e-015 -8.88178e-016 90 0 -0 
-2.69902 23.6399 -2.77193 -66.2293 0 -0 16 -3.55271e-015 -8.88178e-016 90 0 -0 
-2.70049 23.6313 -2.77613 -66.2293 0 -0 16 -3.55271e-015 -8.88178e-016 90 0 -0 
-2.70202 23.6282 -2.77768 -66.2293 0 -0 16 -3.55271e-015 -8.88178e-016 90 0 -0 
-2.70376 23.6312 -2.7762 -66.2293 0 -0 16 -3.55271e-015 -8.88178e-016 90 0 -0 
-2.7056 23.6397 -2.77206 -66.2293 0 -0 16 -3.55271e-015 -8.88178e-016 90 0 -0 
-2.7075 23.6534 -2.76537 -66.2293 0 -0 16 -2.66454e-015 -8.88178e-016 90 0 -0 
-2.70946 23.6719 -2.75642 -66.2293 0 -0 16 -2.66454e-015 -8.88178e-016 90 0 -0 
-2.71147 23.6945 -2.74546 -66.2293 0 -0 16 -3.55271e-015 -8.88178e-016 90 0 -0 
-2.71351 23.7209 -2.73273 -66.2293 0 -0 16 -5.32907e-015 -8.88178e-016 90 0 -0 
-2.71558 23.7505 -2.71849 -66.2293 0 -0 16 -4.44089e-015 -8.88178e-016 90 0 -0 
-2.71765 23.7829 -2.70298 -66.2293 0 -0 16 -3.55271e-015 -8.88178e-016 90 0 -0 
-2.71972 23.8176 -2.68645 -66.2293 0 -0 16 -4.44089e-015 -8.88178e-016 90 0 -0 
-2.72177 23.854 -2.66914 -66.2293 0 -0 16 -3.55271e-015 -8.88178e-016 90 0 -0 
-2.7238 23.8918 -2.65131 -66.2293 0 -0 16 -4.44089e-015 -8.88178e-016 90 0 -0 
-2.72578 23.9305 -2.6332 -66.2293 0 -0 16 -4.44089e-015 -8.88178e-016 90 0 -0 
-2.72771 23.9695 -2.61506 -66.2293 0 -0 16 -3.55271e-015 -8.88178e-016 90 0 -0 
-2.72957 24.0084 -2.59714 -66.2293 0 -0 16 -2.66454e-015 -8.88178e-016 90 0 -0 
-2.73135 24.0467 -2.57968 -66.2293 0 -0 16 -3.55271e-015 -8.88178e-016 90 0 -0 
-2.73304 24.0839 -2.56293 -66.2293 0 -0 16 -3.55271e-015 -8.88178e-016 90 0 -0 
-2.73462 24.1196 -2.54714 -66.2293 0 -0 16 -3.55271e-015 -8.88178e-016 90 0 -0 
-2.73608 24.1532 -2.53256 -66.2293 0 -0 16 -3.55271e-015 -8.88178e-016 90 0 -0 
-2.7377 24.1908 -2.51685 -66.2293 0 -0 16 -2.66454e-015 -8.88178e-016 90 0 -0 
-2.73861 24.2124 -2.50801 -66.2293 0 -0 16 -3.55271e-015 -8.88178e-016 90 0 -0 
